<?xml version="1.0" standalone="no"?>
<!DOCTYPE svg PUBLIC "-//W3C//DTD SVG 20010904//EN"
 "http://www.w3.org/TR/2001/REC-SVG-20010904/DTD/svg10.dtd">
<svg version="1.0" xmlns="http://www.w3.org/2000/svg"
 width="608.000000pt" height="608.000000pt" viewBox="0 0 608.000000 608.000000"
 preserveAspectRatio="xMidYMid meet">
<metadata>
Created by potrace 1.14, written by Peter Selinger 2001-2017
</metadata>
<g transform="translate(0.000000,608.000000) scale(0.100000,-0.100000)"
fill="#000000" stroke="none">
<path d="M162 5698 c3 -335 5 -383 18 -379 8 2 31 3 50 1 19 -1 41 -2 48 -1 6
1 19 1 27 1 8 0 23 0 33 0 9 0 33 0 52 -1 19 -1 41 -1 48 0 6 1 19 1 27 1 8 0
23 0 33 0 9 0 33 0 52 -1 19 -1 42 -1 50 0 8 0 40 0 70 0 30 -1 62 -1 70 0 48
4 362 -6 388 -13 12 -3 32 -8 45 -11 23 -5 58 -18 117 -42 176 -73 328 -214
405 -378 76 -162 73 -119 74 -1270 1 -566 3 -1046 6 -1065 2 -19 8 -53 12 -75
4 -22 8 -44 8 -50 1 -11 32 -109 44 -140 109 -273 319 -500 581 -626 159 -76
313 -116 480 -124 41 -2 77 -5 80 -6 6 -2 -1 -2 91 5 79 7 85 8 179 27 333 68
645 301 804 602 20 38 36 75 36 82 0 7 3 15 8 17 6 2 42 104 43 123 1 2 7 28
15 57 22 79 25 212 28 1273 1 534 5 981 9 995 5 14 10 35 13 46 10 49 63 163
102 221 107 157 274 275 460 324 61 16 230 32 317 31 6 -1 111 -1 235 -1 124
0 234 0 245 0 105 -2 210 1 216 5 5 3 9 174 9 380 l0 376 -502 -5 c-277 -2
-514 -7 -528 -10 -14 -3 -41 -8 -60 -11 -74 -12 -169 -36 -267 -70 -390 -133
-733 -428 -900 -776 -58 -120 -71 -155 -97 -245 -59 -206 -58 -197 -60 -1335
l-2 -1045 -23 -58 c-33 -85 -112 -165 -203 -208 -69 -32 -79 -34 -173 -32 -59
0 -115 6 -135 15 -117 46 -201 125 -242 228 l-23 55 -2 1010 c-2 1050 -4 1161
-29 1255 -4 14 -8 31 -10 38 -9 48 -29 119 -35 127 -3 6 -12 28 -19 50 -17 55
-93 207 -143 285 -184 289 -490 526 -827 640 -69 23 -202 57 -255 65 -23 3
-52 8 -65 12 -14 3 -251 8 -528 10 l-502 5 2 -384z"/>
<path d="M164 4556 c-7 -18 2 -2123 8 -2161 3 -16 9 -50 12 -75 8 -58 24 -151
31 -180 0 -3 5 -23 10 -45 5 -22 9 -42 10 -45 1 -3 5 -18 9 -35 23 -89 74
-238 107 -312 10 -24 19 -47 19 -52 0 -11 123 -250 157 -304 201 -322 406
-548 688 -761 33 -25 65 -49 70 -54 29 -23 107 -72 116 -72 5 0 9 -3 9 -8 0
-4 17 -16 38 -27 20 -11 55 -31 77 -44 176 -110 572 -263 790 -307 165 -33
221 -43 275 -49 19 -2 62 -7 95 -11 120 -16 571 -9 673 11 9 1 40 6 67 9 28 4
57 9 66 12 10 2 31 6 48 9 17 2 38 6 48 9 10 3 29 7 43 10 60 10 223 57 315
90 55 20 105 38 110 39 6 2 20 9 33 15 12 7 22 10 22 7 0 -3 10 1 23 10 13 8
27 12 30 8 4 -3 7 -1 7 5 0 7 5 12 11 12 36 0 386 197 484 272 6 4 44 33 85
64 41 31 82 63 90 71 8 7 29 26 46 41 93 82 243 235 294 298 96 121 210 277
210 289 0 3 15 28 34 56 19 27 38 60 42 72 4 12 10 24 14 27 25 18 170 365
206 490 17 62 55 220 59 250 3 20 8 47 10 60 3 14 8 48 11 75 3 28 8 61 12 75
3 14 7 505 9 1092 l4 1066 -35 0 c-19 0 -39 2 -43 5 -5 3 -15 2 -22 -2 -7 -5
-28 -5 -47 -1 -19 4 -36 4 -39 0 -3 -5 -18 -5 -34 0 -15 4 -34 4 -41 0 -6 -4
-27 -4 -46 0 -18 4 -35 6 -37 3 -3 -2 -38 -5 -78 -8 -107 -5 -166 -27 -246
-92 -55 -44 -95 -103 -118 -173 -17 -51 -19 -112 -20 -915 -1 -473 -5 -876 -8
-895 -3 -19 -9 -55 -12 -81 -43 -361 -249 -765 -535 -1049 -197 -195 -379
-313 -695 -451 -23 -10 -195 -63 -240 -75 -16 -4 -34 -8 -40 -10 -5 -1 -27 -5
-49 -9 -21 -4 -48 -9 -60 -11 -87 -18 -236 -32 -361 -36 -23 0 -242 13 -270
17 -16 2 -46 7 -65 10 -19 4 -46 9 -60 11 -86 12 -309 75 -385 108 -101 44
-206 94 -248 118 -26 16 -52 28 -57 28 -6 0 -10 5 -10 10 0 6 -7 10 -15 10 -8
0 -15 5 -15 10 0 6 -5 10 -11 10 -12 0 -139 91 -214 153 -60 51 -201 191 -235
236 -14 18 -35 44 -48 59 -12 15 -41 56 -65 92 -23 36 -44 67 -48 70 -19 15
-153 292 -164 338 -3 10 -14 44 -25 77 -11 32 -22 68 -25 80 -3 11 -9 40 -15
65 -11 46 -13 57 -25 132 -4 24 -9 57 -12 73 -3 17 -7 415 -8 885 -1 470 -5
875 -9 900 -31 175 -215 316 -406 310 -50 -1 -97 -1 -164 0 -32 1 -60 -1 -63
-4 -2 -2 -17 -1 -32 4 -16 4 -34 4 -41 0 -6 -4 -28 -4 -47 0 -24 6 -36 5 -39
-4z"/>
</g>
</svg>
